# xmcd
#
# Track frame offsets:
#	150
#	21877
#	39887
#	59500
#	75915
#	94315
#	111817
#	130402
#	150507
#	171522
#	185952
#
# Disc length: 2761 seconds
#
# Revision: 1
# Processed by: cddbd v1.5PL3 Copyright (c) Steve Scherf et al.
# Submitted via: CDex 1.50Beta5
#
DISCID=8e0ac70b
DTITLE=鈴木紗理奈 - Find Your Own Wings
DYEAR=1998
DGENRE=Pop
TTITLE0=Long Journey,The
TTITLE1=No More Heroes
TTITLE2=好奇心
TTITLE3=DYNAMITE
TTITLE4=Boo Bee MAGIC
TTITLE5=GOLD
TTITLE6=シャレになんない
TTITLE7=D.F.L
TTITLE8=DIARY
TTITLE9=Summer of Twenty
TTITLE10=Life in a Labyrinth
EXTD=
EXTT0=
EXTT1=
EXTT2=
EXTT3=
EXTT4=
EXTT5=
EXTT6=
EXTT7=
EXTT8=
EXTT9=
EXTT10=
PLAYORDER=
